<svg id="Layer_1" data-name="Layer 1" xmlns="http://www.w3.org/2000/svg" viewBox="0 0 1921.68 300.77"><defs><style>.cls-1{fill:#cbf4d0;}.cls-2{fill:none;stroke:#1c740e;stroke-miterlimit:10;stroke-width:4px;}.cls-3{fill:#edffef;}</style></defs><path class="cls-1" d="M.91,64.8s231.15,118.06,478.15,36.7c269.64-88.81,364.23,108.71,608.78,34.63C1188.27,105.7,1349.41-36.24,1576.7,11.86,1742,46.84,1920.91,122,1920.91,122V296.77H.91Z"/><path class="cls-2" d="M.91,64.8s231.15,118.06,478.15,36.7c269.64-88.81,364.23,108.71,608.78,34.63C1188.27,105.7,1349.41-36.24,1576.7,11.86,1742,46.84,1920.91,122,1920.91,122"/><path class="cls-3" d="M.91,132.33S126.12,190.21,280,170.45s269.64-53.75,392.47-24S933.11,211.07,1031.06,193c119.18-21.94,357.22-151.82,492.45-162.31C1674.12,19,1920.91,90,1920.91,90V300.77H.91Z"/><path class="cls-2" d="M.91,132.33S126.12,190.21,280,170.45s269.64-53.75,392.47-24S933.11,211.07,1031.06,193c119.18-21.94,357.22-151.82,492.45-162.31C1674.12,19,1920.91,90,1920.91,90"/></svg>