<?xml version="1.0" encoding="utf-8"?>
<!-- Generator: Adobe Illustrator 26.0.1, SVG Export Plug-In . SVG Version: 6.00 Build 0)  -->
<svg version="1.1" id="Layer_1" xmlns="http://www.w3.org/2000/svg" xmlns:xlink="http://www.w3.org/1999/xlink" x="0px" y="0px"
	 viewBox="0 0 698.6 698.6" style="enable-background:new 0 0 698.6 698.6;" xml:space="preserve">
<style type="text/css">
	.st0{fill:#1C740E;stroke:#1D3C00;stroke-width:4;stroke-miterlimit:10;}
	.st1{fill:#FFFFFF;}
</style>
<path class="st0" d="M609.1,698.6H89.5C40.1,698.6,0,658.5,0,609.1V89.5C0,40.1,40.1,0,89.5,0h519.7c49.4,0,89.5,40.1,89.5,89.5
	v519.7C698.6,658.5,658.5,698.6,609.1,698.6z"/>
<path class="st1" d="M623.3,348.8c0,17.1-14.3,30.6-30.5,30.6h-30.5l0.7,152.5c0,2.6-0.2,5.1-0.5,7.7v15.3c0,21-17,38.1-38.1,38.1
	h-15.2c-1,0-2.1,0-3.1-0.1c-1.3,0.1-2.7,0.1-4,0.1h-30.9h-22.8c-21,0-38.1-17-38.1-38.1v-22.8v-60.9c0-16.8-13.6-30.5-30.5-30.5
	h-60.9c-16.8,0-30.5,13.6-30.5,30.5v60.9v22.8c0,21-17,38.1-38.1,38.1h-22.8h-30.4c-1.4,0-2.9-0.1-4.3-0.2c-1.1,0.1-2.3,0.2-3.4,0.2
	h-15.2c-21,0-38.1-17-38.1-38.1V448.3c0-0.9,0-1.8,0.1-2.7v-66.3h-30.6c-17.1,0-30.5-13.3-30.5-30.6c0-8.6,2.9-16.2,9.5-22.8
	l244.1-212.8c6.7-6.7,14.3-7.6,20.9-7.6c6.7,0,14.3,1.9,20,6.7L612.8,326C620.4,332.6,624.2,340.3,623.3,348.8z"/>
</svg>
