<?xml version="1.0" encoding="utf-8"?>
<!-- Generator: Adobe Illustrator 26.0.1, SVG Export Plug-In . SVG Version: 6.00 Build 0)  -->
<svg version="1.1" id="Layer_1" xmlns="http://www.w3.org/2000/svg" xmlns:xlink="http://www.w3.org/1999/xlink" x="0px" y="0px"
	 viewBox="0 0 512 512" style="enable-background:new 0 0 512 512;" xml:space="preserve">
<style type="text/css">
	.st0{fill:#FFFFFF;}
</style>
<path class="st0" d="M217.9,105.9l122.8,122.8c7.2,7.2,11.3,17.1,11.3,27.3c0,10.2-4.1,20.1-11.3,27.3L217.9,406.1
	c-6.4,6.4-15,9.9-24,9.9c-18.7,0-33.9-15.2-33.9-33.9V320H32c-17.7,0-32-14.3-32-32v-64c0-17.7,14.3-32,32-32h128v-62.1
	c0-18.7,15.2-33.9,33.9-33.9C202.9,96,211.5,99.6,217.9,105.9z M352,416h64c17.7,0,32-14.3,32-32V128c0-17.7-14.3-32-32-32h-64
	c-17.7,0-32-14.3-32-32s14.3-32,32-32h64c53,0,96,43,96,96v256c0,53-43,96-96,96h-64c-17.7,0-32-14.3-32-32S334.3,416,352,416z"/>
</svg>
